<svg id="Layer_4" data-name="Layer 4" xmlns="http://www.w3.org/2000/svg" width="3000" height="2000" viewBox="0 0 3000 2000">
  <path d="M2451.6,567.77,2447.26,557l-9.21-12.66-1.27-8.69-9.52-12h0l-18.42-8.26-2.71.34-5.2-.45,2,2.26-5,3.62-.11-.2-.12.09-1.64-2.95-5.37.12-.08-.11h-.15l-4.1-6.1-8.22.44-6.32-2.82-.24-.11,3.62-2.83-.22-3.16,5.65-7.92-94.12,14.65-48.73-23-39.26,24.37L2007.68,494l-88.41,19.43h0l-91.59-12.22L1630.14,465l-12.75,3-6.33,1.5-17.92,76.55-19.27,28.33L1609,607.24l-18.13,15.87,3,19.11,40-12.91-.33-2.4-4-4.17,2.37-.89,1-7.14,4.32.15.89-11.3,4.91-2.23-.18-7,4.16-2.92,3.88-6.65,11.23,1.25-3.88,2.49,15.1,1.53-8.73,6.65,8.18,2.36-.83,5.27,6.1.83,4.29-3.61.8.07,8.45-5.87-6.81-.41-8.69-5.61,7.49-2,10.29-4,6.82-2.94,6,1.2-.4-1.91,6.51-.74.32,1.45,0,.12-.78.41-8.83,6.13,4.79,2.4-2.8.61.18,2.1-3.25,1.23,1,3.86h-2.63l-4.47-.27-.79,1.14,5,2.28,1.66,2,3.51-.17,1.75,3.42h3.85l11.13,8,4.9,4.12,6.49,1.31,4.38,8.94-.44,3.5-8.5,6-5.08-.18-2.33-1.1-4.15.22-.88.88h-5.43l-1.88-1.62,0,0-2,1-2.28-.62-4.47-2.36-1.58,1-2.27-1-1.4-3-4.39.7-3.94-4.38-2.19,1.67-10-.9-22.23,29.17-8.22,20.54,1.5,3.5,5.12,2.81,5.62-2.68.39-3.58,7.54-.77,8.82,7.54,11.25-2.81,3.7-4.48,5.63,1.54,6.13-2.05,1.41,1.67-2.81,3.06-.51,6.91,2.17,2,.64,8.18-5.75,13-1.77,9.14,26,13.24,22.77,24.2,24.56-15.67,36.4-1.07,0-.06,14.83-.38,6.65,9.72,5.24,9.2,5.11.77,5.37,4,8.69,7.8,9.08,2,11.12-5.88,5.37.26,6.13,12.65,33.62,6.65,17.9-1.28,9.46.26,13-2.69,2.68,5.63h3.07l5.49,10,3.71.13,13.13,7.89L1995.11,792l-16.41-24.63,41-11.49,87,6.57H2156l78.79,23,20.49-6.4,1.71,68,34.76,6.62-6.72-8.19.38-8.69,3.07-1.28,2.94-7.41,4-3.58,8.69-4.86,3.46,1.79,7.67.38-.9,4.09.9,6,2.94,2,3.32-2.18-2.56-3.83,1.66-4.35,23.65-7.67-2.17-6.39,5.75,4.48,18.15-5.25,21.1-27.1-.9-7.92,9.08-16.62,2.13-13h0l-.72-1.5-4.74-9.86-1-2.43-8.31-5.88,5.75-1.54-20.58-22-9.58-6.14,3.58-8.95,8.3-8.94,5.5.25.9-5.62-11.13-1.15-6.51-3.07-6.14,6-5.75-.39-2.3-8.56-4.86.51-6.23-3.35-2.08-1.12-.77-5.88,5.76,1.79,4.47-1.41.77-6.65,6-4,2.43-5,6.39.26,3.46,4.22-3.33,8.56,4.6.13,2.69,4.22,12.4-8.69,11.35,3.93.27.09,1.67.58.9,12,5.24,4.86,2.3-2.43,6.9,1.79,5.11,6.65-4.73,2.17,4.35,2.81,4.22,5.63-1.41,4.22,1.66,6.26,4.61,2.81,7.67-4.09,10.09-3.19-4.72-16.62L2416.68,660l-10.74-6.65-1.27-4.09,5.11-2.94,5.5-7.41-4.1-7.54,3.84-7,5.76-7.15-.11-.25,13.55,4.35,8.44-7,7.79-22.89-1.91-8.56ZM1839.05,677.15l-12.57,3.93-9.51-3.67-6.06-6.27-8-.22-4.75-15.13,3.24-11.25-20.54-24.43-1.3-9.29-7.56-6.27,5.83-9.08,5.63-.87,6.26-9.29,12.11-5.19,6.82,4.5,3.95-2.84,5.56,6.3.13,6,3.21,3,5.18-1.11,1,4.08-3.83-1.49-11.7-2.28-2.87-.56L1807,598.1l-2.44,2.57,2.59,3.34H1799l3.89,2.48,4.76,7.35,4.47,3,.34.23,7.94,5.25-.21,6.48,5.19,11.89.65,8.22,5.4.21-2.16,4.54,6,1.09,5,22Z" style="fill: red"/>
</svg>
