<svg id="Layer_4" data-name="Layer 4" xmlns="http://www.w3.org/2000/svg" width="3000" height="2000" viewBox="0 0 3000 2000">
  <path d="M2452.38,567.77,2448,557l-9.21-12.66-1.27-8.69-9.52-12h0l-18.42-8.26-.23-.11-2.71.34-5.2-.45,2,2.26-4.85,3.53-.12.09-1.64-2.95-.06-.11-5.39.12h-.15l-4.1-6.1-.08-.12-8.37.45-6.09-2.71-.24-.11,3.62-2.83-.22-3.16,5.65-7.92-94.12,14.65-48.73-23-39.26,24.37L2008.46,494l-88.41,19.43h0l-91.59-12.22-136.11,32.53-11.15,14-29.51,37,11.23,1.25-3.88,2.49,15.1,1.53-8.73,6.65,8.18,2.36-.83,5.27,6.1.83,4.29-3.61,4.86.42,1.52-2.08,4.88-.81,2.28-3.07-11.1-.67-8.69-5.61,7.49-2,10.29-4,6.82-2.94,6,1.2-.4-1.91,6.51-.74.35,1.57-11.12,5.79,6.3,3.15-2.8.61.18,2.1-3.25,1.23,1,3.86h-2.63l-4.47-.27-.79,1.14,5,2.28,1.66,2,3.51-.17,1.75,3.42h3.85l11.13,8,4.9,4.12,6.49,1.31,4.38,8.94-.44,3.5-8.5,6-5.08-.18-1.58-1.14-4.9.26-.88.88h-5.43l-1.88-1.62,4.85,17.94,18.06,19.7,4.92,31.19,29.55,37.76,36.4-1.07,14.85-.44,6.65,9.72,5.24,9.2,5.11.77,5.37,4,8.69,7.8,9.08,2,11.12-5.88,5.37.26,6.13,12.65,33.62,6.65,17.9-1.28,9.46.26,13-2.69,2.68,5.63h3.07l5.49,10,3.71.13,13.13,7.89L1995.89,792l-16.41-24.63,41-11.49,21.34-27.91h44.32l21.34,34.48h49.25l78.79,23L2288.09,769l18.06-54.17,62.35-14,20.81-20L2376,657.74l12.47-5.91,0,0,27.37-13-4.1-7.54,3.84-7,5.88-7.29,13.55,4.35,8.44-7,7.79-22.89-1.91-8.56ZM1839.83,677.15l-12.57,3.93-9.51-3.67-6.06-6.27-8-.22-4.75-15.13,3.24-11.25-20.54-24.43-1.3-9.29-7.56-6.27,5.83-9.08,5.63-.87,6.26-9.29,12.11-5.19,6.82,4.5,4-2.84,5.56,6.3.13,6,3.21,3,5.18-1.11,1,4.08-3.83-1.49-11.7-2.28-2.87-.56-2.25,2.37-2.44,2.57L1808,604h-8.15l3.89,2.48,4.76,7.35,4.47,3,.34.23,7.94,5.25-.21,6.48,5.19,11.89.65,8.22,5.4.21-2.16,4.54,6,1.09,5,22Z" style="fill: red"/>
</svg>
