<svg id="Layer_4" data-name="Layer 4" xmlns="http://www.w3.org/2000/svg" width="3000" height="2000" viewBox="0 0 3000 2000">
  <polygon points="2376.06 647.89 2341.42 648.14 2278.57 668.56 2277.32 696.13 2247.24 688.61 2169.53 681.09 2143.21 688.61 2125.66 666.05 2119.4 663.73 2106.49 691.17 2068.52 691.17 1981.9 725.58 1879.86 671 1871.56 638.96 1994.96 618.79 1999.7 602.18 2023.65 603.86 2023.66 603.86 2009.09 564.53 1982.77 525.67 2066.75 509.38 2146.04 503.44 2162.19 487.29 2265.11 517.73 2290.48 514.11 2343.39 544.55 2328.55 559.79 2358.79 600.88 2350.02 614.66 2376.06 647.89" style="fill: red"/>
</svg>
