<svg id="Layer_2" data-name="Layer 2" xmlns="http://www.w3.org/2000/svg" width="3000" height="2000" viewBox="0 0 3000 2000">
  <g>
    <path d="M3001.8,1024c0,361.55-267.22,664.89-627.48,747.53a883.63,883.63,0,0,1-197.76,22.25q-30,0-59.45-2H885.33q-29.45,2-59.44,2a883.85,883.85,0,0,1-193.46-21.27C270,1691.27.65,1387,.65,1024c0-414.71,351.58-752.84,791.9-769.16q16.59-.62,33.34-.62H2176.56C2632.32,254.19,3001.8,598.84,3001.8,1024Z" style="fill: #fff"/>
    <polygon points="1498.04 999.76 1492.22 1016.17 1496.98 1021.47 1489.57 1032.58 1516.04 1074.94 1518.16 1084.47 1528.22 1110.94 1523.46 1113.06 1530.87 1138.47 1519.75 1154.35 1512.34 1195.65 1535.63 1244.88 1540.4 1284.06 1555.22 1305.77 1566.87 1332.24 1563.16 1344.94 1574.81 1353.41 1634.63 1346 1685.99 1283.53 1683.87 1265 1707.17 1257.59 1703.46 1213.65 1753.22 1175 1753.22 1125.23 1739.46 1080.76 1761.7 1042.64 1795.58 1006.64 1819.93 984.94 1841.64 912.93 1792.4 926.17 1773.87 916.64 1774.93 904.46 1743.17 879.58 1733.64 854.17 1722.52 843.58 1718.81 817.11 1708.75 809.17 1690.75 765.75 1679.11 746.7 1694.92 763.92 1699.51 746.21 1691.96 729.48 1664.41 727.18 1652.6 734.73 1620.78 727.18 1593.89 714.06 1576.5 722.59 1578.8 732.11 1572.57 739.32 1545.01 729.15 1540.09 718.98 1520.74 714.39 1498.43 702.91 1507.29 695.7 1507.29 690.77 1502.04 684.22 1508.28 675.69 1501.39 675.69 1495.15 672.08 1485.97 677 1472.19 674.37 1462.02 677.33 1452.18 676.34 1426.93 680.28 1403.96 694.38 1395.77 690.12 1388.88 692.74 1376.41 685.2 1363.95 704.55 1350.83 711.77 1337.38 733.75 1341.31 740.96 1323.27 759.33 1312.78 761.3 1308.18 773.11 1300.64 777.04 1299.66 782.95 1295.72 788.52 1295.06 794.76 1288.83 799.68 1275.71 829.53 1282.93 837.4 1281.62 844.94 1283.91 848.22 1284.24 859.05 1279.32 868.89 1278.99 877.75 1273.09 885.29 1278.34 894.47 1274.73 908.91 1303.92 938.1 1304.25 948.27 1350.17 984.02 1385.6 974.18 1399.37 981.4 1449.89 966.97 1458.09 967.95 1463.66 985.66 1486.63 981.07 1498.04 999.76"/>
    <polygon points="1492.72 635.9 1489.22 639.65 1484.99 639.28 1484.99 641.1 1486.44 643.75 1487.65 649.79 1486.44 655.71 1488.73 657.53 1491.51 656.8 1491.87 654.63 1496.22 655.71 1497.31 647.14 1496.34 643.75 1497.67 642.42 1495.5 636.87 1492.72 635.9"/>
    <polygon points="1494.16 619.73 1493.91 621.73 1491.84 622.05 1488.39 624.74 1489.9 631.83 1492.84 634.58 1494.85 631.26 1494.6 628.13 1495.54 627.56 1495.22 622.24 1494.16 619.73"/>
    <polygon points="1438.66 535.93 1434.12 537.62 1435.07 539.53 1430.31 540.79 1434.64 543.97 1427.67 547.66 1426.51 546.82 1420.48 547.03 1418.26 548.83 1415.41 547.03 1410.23 549.36 1406.42 547.88 1402.72 548.62 1400.61 552.42 1396.27 551.26 1388.56 554.43 1385.81 553.48 1393.42 547.98 1393.95 545.45 1395.53 545.45 1397.65 543.44 1404.2 543.54 1408.64 539.21 1401.45 541.96 1396.8 538.36 1391.84 539 1390.14 536.88 1393.1 534.45 1395.11 535.09 1399.02 531.28 1399.02 528.11 1394.79 528.53 1398.81 524.2 1406.21 523.56 1406.21 522.19 1407.69 520.29 1406.95 518.81 1409.38 515.74 1406.11 517.01 1403.78 513.31 1405.68 508.98 1401.35 510.77 1399.76 510.35 1398.6 511.62 1393.32 511.51 1393.21 507.81 1397.12 504.33 1395.64 501.79 1395.85 500.73 1395.85 498.83 1389.4 506.02 1390.67 502.74 1390.36 500.52 1392.79 496.71 1387.29 498.09 1387.29 493.97 1392.26 488.89 1390.36 486.88 1390.99 484.24 1394.16 483.19 1396.91 477.48 1410.23 476.52 1409.49 479.7 1402.4 484.03 1404.63 485.3 1401.77 486.88 1406.42 485.4 1418.47 485.51 1418.47 487.52 1416.46 490.06 1416.36 492.17 1407.8 497.14 1409.49 497.98 1408.11 499.46 1411.5 499.78 1415.83 501.79 1419.95 507.18 1420.9 512.36 1424.71 512.57 1426.93 515.53 1426.51 518.17 1428.83 519.76 1427.67 522.3 1430.95 523.46 1431.9 527.48 1437.18 527.69 1439.61 529.59 1438.66 535.93"/>
    <polygon points="1378.45 505.1 1373.13 507.94 1368.39 509.36 1366.97 512.44 1370.4 512.79 1365.79 515.87 1359.27 515.28 1356.79 517.65 1358.09 519.9 1356.2 523.33 1359.51 525.58 1363.42 525.58 1360.1 527.59 1359.87 530.43 1356.79 532.92 1352.88 534.22 1353.83 535.41 1353.71 538.25 1355.72 538.48 1356.67 541.44 1359.27 540.73 1368.39 539.55 1375.26 534.46 1382.36 534.34 1386.27 526.76 1384.61 520.25 1383.07 518.24 1386.62 518.12 1391.83 513.62 1386.38 507.59 1381.29 508.42 1378.45 505.1"/>
    <polygon points="1825 1140.1 1821.85 1145.09 1821.85 1152.71 1814.22 1156.66 1809.49 1168.22 1798.45 1176.37 1781.89 1180.31 1781.89 1186.36 1779.53 1192.93 1779.79 1206.86 1783.21 1216.06 1772.95 1230.52 1771.12 1238.4 1775.06 1249.44 1773.48 1257.86 1779 1264.69 1785.83 1267.58 1794.51 1264.43 1800.82 1264.43 1825.53 1194.77 1824.21 1187.94 1828.68 1182.42 1827.63 1171.9 1831.57 1179 1834.72 1171.9 1832.62 1164.02 1832.36 1154.03 1828.68 1146.14 1825 1140.1"/>
    <polygon points="1586.38 665.5 1594.6 664.05 1601.04 667.11 1604.26 672.26 1599.11 672.1 1602.33 681.12 1598.3 677.9 1596.69 680.32 1593.79 675.97 1592.99 679.03 1590.25 678.55 1591.22 677.1 1589.44 675.33 1589.93 670.33 1586.38 665.5"/>
    <polygon points="1606.16 688.57 1611.47 689.3 1614.13 691.59 1625.73 693.04 1628.02 691.71 1627.78 694.61 1614.85 695.82 1614.37 694.37 1606.28 692.8 1606.16 688.57"/>
    <polygon points="1719.89 569.62 1718.02 572.56 1718.02 574.43 1710.67 574.43 1710.53 577.51 1708.53 577.51 1709.2 580.68 1709.6 582.59 1703.58 581.39 1696.76 584.33 1686.47 588.34 1678.98 590.35 1687.67 595.96 1698.77 596.63 1696.49 599.7 1691.61 600.51 1690.09 602.59 1685.23 602.17 1680.94 605.78 1674.84 604.95 1675.67 599.68 1667.49 597.32 1676.22 590.67 1661.12 589.14 1665 586.65 1653.77 585.4 1649.89 592.05 1645.73 594.97 1645.91 601.95 1641 604.18 1640.11 615.48 1635.79 615.33 1634.75 622.47 1632.38 623.36 1636.39 627.53 1636.98 631.84 1645.01 637.64 1632.52 638.68 1630.44 642.39 1621.37 642.25 1621.52 639.72 1613.49 639.12 1611.86 642.1 1609.03 639.87 1605.17 640.76 1607.25 646.11 1604.72 645.81 1603.83 648.04 1596.69 642.84 1596.1 646.56 1599.66 649.53 1601.45 655.03 1609.18 661.13 1609.63 663.21 1599.66 658.6 1607.1 663.66 1608.14 668.27 1596.84 663.36 1585.54 663.21 1578.1 652.06 1574.24 652.06 1575.73 648.64 1569.78 643.73 1572.31 630.95 1561.6 622.47 1548.07 617.12 1536.62 607.16 1535.88 602.1 1531.71 600.17 1527.4 602.84 1525.32 594.22 1518.18 596.6 1516.25 596.45 1515.21 598.09 1517.59 600.32 1515.95 603.74 1519.97 610.72 1526.36 614.14 1528.74 621.88 1538.26 629.01 1545.54 628.72 1546.29 630.95 1543.91 632.73 1554.76 637.93 1564.43 645.22 1563.09 648.64 1558.48 644.18 1555.65 644.18 1553.12 642.54 1549.26 650.13 1554.91 653.25 1555.36 658.45 1552.08 657.86 1546.58 667.23 1543.61 667.37 1542.57 665.14 1539.3 670.79 1539.74 676.74 1539.15 679.72 1533.94 675.25 1530.23 675.7 1517.74 669.01 1520.27 664.7 1522.79 663.81 1527.1 666.33 1544.35 663.81 1544.95 659.49 1547.62 658.45 1543.01 648.04 1540.64 648.04 1537.36 645.07 1534.99 641.5 1527.95 636.58 1521.37 636.08 1501.39 618.88 1499.88 609.77 1490.26 605.22 1481.92 609.52 1468.77 618.62 1462.7 615.34 1452.83 613.82 1446.51 619.38 1447.02 624.44 1447.02 628.99 1428.81 638.86 1429.57 642.4 1426.53 642.4 1418.18 650.74 1423.33 659.25 1418.69 661.37 1414.64 670.22 1409.51 671.55 1403.77 678.56 1386.82 678.31 1376.41 685.2 1367.35 674.01 1350.15 674.27 1352.43 662.38 1347.62 661.87 1355.46 636.58 1354.2 629.75 1356.47 624.95 1352.43 617.87 1360.27 615.34 1361.53 612.3 1368.36 613.82 1388.59 615.34 1409.84 615.08 1414.9 588.78 1409.52 583.67 1404.85 577.55 1392.29 573.53 1392.29 570.79 1390.36 568.05 1403.08 564.99 1407.27 567.08 1410.97 565.96 1414.52 566.76 1414.19 561.77 1412.75 560.8 1412.58 557.26 1416.45 557.26 1417.42 559.35 1426.28 560.48 1429.5 556.13 1437.87 553.23 1439.64 544.21 1450.76 542.76 1455.27 538.57 1463.16 532.13 1467.35 524.24 1477.66 523.75 1479.27 521.34 1484.1 521.34 1486.52 521.82 1487 519.24 1491.19 519.24 1487.81 510.71 1488.61 507 1485.71 506.52 1487.97 490.9 1494.57 489.28 1497.47 486.55 1502.62 485.42 1502.79 487.51 1501.01 492.02 1503.75 498.3 1499.72 499.75 1503.75 501.53 1512.45 499.27 1514.22 501.53 1513.42 504.91 1514.22 507.33 1515.83 507.81 1512.93 512.32 1505.04 510.87 1506.65 508.45 1503.75 507.97 1497.15 507 1499.08 509.9 1502.46 513.45 1507.3 512.48 1507.78 517.96 1517.77 513.61 1526.79 518.44 1542.89 514.73 1552.72 511.35 1559 511.67 1559.32 514.25 1567.05 514.09 1568.66 510.71 1570.76 511.35 1574.62 506.84 1578.01 507.16 1574.46 499.27 1574.79 492.51 1578.81 486.55 1580.26 486.55 1585.58 484.29 1585.58 486.39 1588.32 488 1592.5 490.9 1597.01 487.51 1596.69 483 1598.14 480.91 1596.69 478.65 1591.38 480.59 1589.44 473.18 1594.92 469.63 1604.74 468.51 1613.93 470.12 1620.02 467.74 1620.95 471.21 1617.21 475.09 1620.82 483.11 1617.88 486.46 1621.35 488.6 1620.95 491.27 1624.29 494.75 1625.23 498.89 1632.58 500.5 1634.46 501.83 1637.93 501.3 1644.75 503.84 1644.75 506.51 1646.49 507.58 1644.22 510.12 1652.64 516.27 1653.44 519.48 1657.85 519.62 1657.59 522.16 1660.53 524.03 1655.45 526.7 1653.71 525.9 1650.37 526.03 1654.51 534.72 1657.72 536.46 1659.32 533.79 1669.75 532.32 1675.5 538.6 1672.69 539.67 1673.5 542.61 1680.32 542.61 1684.59 550.9 1686.73 550.23 1690.88 552.51 1697.3 549.97 1702.78 555.05 1704.25 553.84 1710.67 555.31 1717.62 556.79 1718.96 561.6 1717.75 563.47 1718.29 564.81 1716.82 566.41 1719.89 569.62"/>
    <path d="M2629.19,424.87l-1.36-2.82-3.16-4.07,6.33-1.13-1.25-1.59.91-2.15-9.38-2.6-13.91-5-5.2,1.36-2.6-1-9.15-.79,7.23,2.94,1.47,2.6-10.29-4.75L2577.08,400l-36.51-8.51-19.68-5.14-9.6-.7-10.83-2.47-16.78-.37-20.22-1.67,2.09,1.61.91,2,10.94,4.45,2.31,1.45-7.19.64-4.45-2.3-8.74-1.29-9.82-5.2-.26,2.79-16.09-.22-4-1.28-16.79,1.28-11-1.82-2.14-4-11.48-4-16.46-1.71-15.88,1.66-10.61-.22L2334.54,371l-5.21.17-5-1.45-6.87-.86.22-1.07,3.91-.7-6.54-2.47-14-.43-1.29.49-4,.1,1.71,1.77,1.24,1.83-3.92.16-1-.7,1.83-1.34-1.61-1.56-8.32-.37,3.92-.81,8.1-.21L2285.9,362l-19.79-.86-3.27-1.34-6.28-.59,2.52,1,2.31,1.77-7.51.64-.16,1.13L2255,365l4.88-.59,0,2.09,6.33,4-2.85.65-3.48-1.94-4.94.59.49,1.24,2.2.48.91,1.13-1.77.1-4.35-1.87-9.54-1.88-5.85,1.18-.48,1.18L2226,369.67l-6.38-2.47,0,2.2,2,3.27-.27.81,1.07,2.57h-2.95l-1.82-1.72-2,.11-15.13-5.15-5-2.3-3.54-1.88,3.75.75,2.41-.48-2.36-2.36-4.34-.59,1.13-1.45-5.64-1.72,1.51-1.44-8.15-1.67-1.88-1.39h-6.92v1.18l-3.22-1.13-5.63.27-8.79-3.38.1,2-3.54.48,5.21,3.16.26,1.88-20.64-.48-10.41-1.5-1.12-1.51,1.82-.85L2108.71,353l-12.1,1.16.61,1.4-3.56-1.71-6.91-2.88.21-2.92-9-1.4v1.4l-1.75.7,9.7,2.11,2.93,1.87-8.19.12-1.29-2-9.94.23.24,2,7.6.12-6.78,2.81L2056,357.92l-3.74,2.69,1.4-3.86,3.16-2.22,9.59-3.86.7-2,8.07-1.76,5.15-5.38-9.94-7.48-17.9-3.16-16.14-.12,1.41,1.76-9.13-.47,2-2.81-9.94.12-6.9-1.4,4.68-.36,2.69-1.87L2008,324l-8.31,1.52-4.21,4.68,4.1.23,1.28,2.57-10.87-.11,4.79,2.57-8-.93-9.71,2.33-1.4-1.75h-15.79l1.52,1.75-14,1.76-1.28,1.87-5.27-.47-3.27,4.21h-2.92v2.69l-4.22,1.29,9.48,2.57-6.67.47-2.22,1.75-25.61,1.17.23,2.69,3.86,2.23.12,2.34,2.8,1.75,9.13.47,1.52,2.22,5,2.46h-8.54l-5.85-2.81-9.83-2.22-6.54-.12-3,2,4.1.47.11,2.22-6.66-1.52-5.62.47,7.14,3.86,9,1.28,2.93,1.64,4.21.7-5.26,1.17-2.93-2.22-10.52-.12-5.85-2.45v-2l-2.11-1.17-.47-3.86-7-4.56,3.74,6.2-6.32,2.33-.93,2.58,11.23,5.61-1.88,5.15.47,3.74,3.16,1.52,2,2.81,11.23-1.29,13.21,2.81,6.09,5.5-3.4.35,4,4.56,8,.35-7.37,1.4-4.79-2.8-2.46-5.27-7.48-4.33-11.81.59,1.16,5.15,4.57,1.4.58,3.51-2,.35v4.33l-7,3.15.24,3.28-13.22-.12-8.07-4.21,9.36,1.52,6.78-3.86,3.51-11.46-9.24-4.09-5.85-15.21-8.42-4.91,1.76-.58-.47-1.76.82-2.69-2.81-4L1847,359.67,1844,358.5l-1.52,1.17.12,7.6-2.81,3.75-4.21,1.87.7,2.8,3.74-.46.59,4.44,2.92,2-3,.12,1.76,3.39,7.83.93,3,4,7,.23-2.69,5.85-7.6-4.44-22.69-6.08-22.46-3.4.82,1.88-2,.35-2.92-3.16-4.56-.82-4-2.22-2,2.1,3,2.58,3.28-.12,2.81,2.34,2.22-.82,8.3,5.26-2.34,2.69-3.74.12,1.4,2.22-5.49-.11.35-2.93-5.27-2.1-6.43,3.27-7.48-.58-6.2,2.22-.24,2.22-8.77-.82,2.93-1.52-1.64-1.17-.35-2.57-8,2,1.76,2.92-4-1.75-7.48,1.63-4.33,2.58-7.6.35.93,2-5,.11.94,6.32-9.24,1.17-9.48-5.73,2.81-.12v-1.64l8-1.4-8.07-6-14.27-.81-1.76.7,6.79,2.57,1.16,2.34-1.28,6.43,4,.7,2.11,4-2.22,4.56h-2.46v-2.22l-1.87-.7-7.49-.7-4.32,3.86-4,.46-.93,1.76-4.1,1.52v2.1l3,1.64,3.86,3.39.82,1.76-9.36-.7-3.15-1.41-3.75.47-3.62-2.81-5.62-.93.12,1.75-2.22.82,6.2,4.68,3.74-.58,1.75,2.92-2.1,2.46-8.66-2-4-3.39-3.75.11-2.92-1.05-.58-2.69-3.63-4.8h2.11l-.12-1.87,1-.93-2.1-2.69-6.79-2-.82-1.64-6.43-2.34-.7-1.75-2.93-.94h4.22l2.92,2.93,7.84.81,9,3.63,4.68-1.29,12.75,2.23,8.07-.71,5-2.33,3-2.23-.23-3.86-1.29-1.05-1.76-3.51h-2.57l-3.27-2.22-1.76.12-29.82-10.41-9.83,1-4.09-2.92-6.08-.24-2.58-2.1-.11.09-1.87,1.66L1618.07,387l-5.5,5,1,4.44,4.8.71,4.44,3.86-5,5.61,6.9,6.55,1.41,4.21h-2l-.24,2,1.52,1.52-1.28,3.16,2.92.58-.23,2.93,4,1.28.47,2-2.92,2.81,10.52,6-3.5,6.08-13.1,9.71-6.26,6.91,2.28-.89,4.46-1.74,2,3.24,6.3.88,1.93,1.75h-6.57l-.17,1.58-3.51-1-2.74,1.52.93,3.47-3.74,3.88,3.61,8-2.94,3.35,3.47,2.14-.4,2.67,3.34,3.48.94,4.14,7.35,1.61,1.88,1.33,3.47-.53,6.82,2.54v2.67l1.74,1.07-2.27,2.54,8.42,6.15.8,3.21,4.41.14-.26,2.54,2.94,1.87-5.08,2.67-1.74-.8-3.34.13,4.14,8.69,3.21,1.74,1.6-2.67,10.43-1.47,5.75,6.28-2.81,1.07.81,2.94h6.82l4.27,8.29,2.14-.67,4.15,2.28,6.42-2.54,5.48,5.08,1.47-1.21,6.42,1.47,6.95,1.48,1.34,4.81-1.21,1.87.54,1.34-1.47,1.6,3.07,3.21-1.87,2.94v1.87h-7.35l-.14,3.08h-2l.67,3.17,6.51-.74.35,1.57-11.12,5.79,6.3,3.15-2.8.61.18,2.1-3.25,1.23,1,3.86h-2.63l-4.47-.27-.79,1.14,5,2.28,1.66,2,3.51-.17,1.75,3.42h3.85l11.13,8,4.9,4.12,6.49,1.31,4.38,8.94-.44,3.5-8.5,6-5.08-.18-1.58-1.14-4.9.26-.88.88h-5.43l-1.93-1.66-2,1-2.28-.62-4.47-2.36-1.58,1-2.27-1-1.4-3-4.39.7L1690,628l-2.19,1.67-11.65-1.05-6.57,2.71-7.62,5.7-6.22-1.06-10.25.44-.61,2.11,3.76,3.24-4.38.17,2.28,2.1-10.51-.87-1.23,1.93-3.42-1.76L1624,646.6l-.17,5.11,5.75-.89.77,6.39-2.17,6.52,6,10.35,13.17,4.35,1.53,3.58,5.12,2.81,5.62-2.68.39-3.58,7.54-.77,8.82,7.54,11.25-2.81,3.7-4.48,5.63,1.54,6.13-2.05,1.41,1.67-2.81,3.06-.51,6.91,2.17,2,.64,8.18-5.75,13-2.3,11.89-4,5.16,7.55,16.73.11,13.39,20.84,29.14-.9,1.79,3.58,5.5,6.52,3.58,6.39,13,1,12.14,6,9.08,4.35,1,5,5.62,1.78,6.91,11.51,12.78,3.83,11.5,1,11,6.77,23.52,11.89-1.54,5.37-4.21,13.68-1.92,4.6-3.84,7.28-.76,4-6,18.28-5.37,6.13-5.62v-4.48l14.06-7,8.82-1.15,1.79-6.14,7.8-1.4,1.92-1.79,1.4-5.5,8.82-2-1.4-7.8,2.55-7.93,2.43,2.31,7.16-11.38,4.22-9.08-5.24-2.43-6.39-9.2-13.68-3.07-5.37-7-2-10.61-2.18-2.3-15.34,17.51-10,.26-4.22,2.3-5.62-3.32-1.15-8.06v-4.73l-3.07-3.06-2.55,1.91-1.54,5.37-4.6-6.26-.64-7.42-10-7.66-10-18.67,1.66-4.86,14.83-.38,6.65,9.72,5.24,9.2,5.11.77,5.37,4,8.69,7.8,9.08,2,11.12-5.88,5.37.26,6.13,12.65,33.62,6.65,17.9-1.28,9.46.26,13-2.69,2.68,5.63h3.07l5.49,10,3.71.13,15.09,9.07,4.47-1.4-3.32,5.75-8.31.13L1998.61,830l9.59-4.47,1.79-4.35-1.15-3.19,1-2.82,5.5,15-2,7.29,9.08,33.74L2034.28,892l2.55,11.5,8.44,13,7.8,24,7.28,9.85,5.88-2.56,2.05-6.77,5.37-2.18,2.81-7.92,3.71-5.24-.51-10,4.21-11.76-4-25.19,15.09-7.54,1.66-6.52,14.06-9.33,5.75-12.65,11.25-5.37,3.19-7.16-.38-5.88,8.31-4.73,1.41,1.92,7,.25,5.24-4.34,7.16.63,1-7.67,5.11.77,6.78,14.7,9.33,13.42,2.3-2.68,3.32,4-.38,7.54,4.09-.25,6,13.17-.77,13.16,10.87,1.79,1-2.3,7.41-3.58v-7.8l8.95,11.76,5.75,23,4.61,16.11,3.06,11.5-3.06,24.16,5.62.13,11.76,18.15,4.35,22.24,5.49,6.52.77,3.84,18.92,17,6.77-5-7.67-13.93-1.4-19.17-17.39-18-4-.12-10.74-22.5-4,.64-1.41-8.31,5-20.33,1.28-10.61,4.34.13,2.56,6.52,5,.26,7.28,6,2.94-1.27,2.81,7.28,4.86,2,1.41,7.54,5.88-.26,4.6,2.82-.26,4,.26,10.48,13.93-9.71.26-6.52,1.66-1.67,1.92,1.15,15.85-11-1.28-24.54-10.1-19-11.5-8-6-11-7-8.57.38-8.69,3.07-1.28,2.94-7.41,4-3.58,8.69-4.86,3.46,1.79,7.67.38-.9,4.09.9,6,2.94,2,3.32-2.18-2.56-3.83,1.66-4.35,23.65-7.67-2.17-6.39,5.75,4.48,18.15-5.25,21.1-27.1-.9-7.92,9.08-16.62,2.3-14.06-6.78-3.71L2388,740v-1.15l6.77-5.62-1-2.43-8.31-5.88,5.75-1.54-20.58-22L2361,695.3l3.58-8.95,8.3-8.94,5.5.25.9-5.62-11.13-1.15-6.51-3.07-6.14,6-5.75-.39-2.3-8.56-4.86.51-8.31-4.47-.77-5.88,5.76,1.79,4.47-1.41.77-6.65,6-4,2.43-5,6.39.26,3.46,4.22-3.33,8.56,4.6.13,2.69,4.22,12.4-8.69,13.29,4.6.9,12,5.24,4.86,2.3-2.43,6.9,1.79,5.11,6.65-4.73,2.17,4.35,2.81,4.22,5.63-1.41,4.22,1.66,6.26,4.61,2.81,7.67-4.09,10.09-3.19L2434.64,676l-15.09-15.34L2408.81,654l-1.27-4.09,5.11-2.94,5.5-7.41-4.1-7.54,3.84-7,5.88-7.29,13.55,4.35,8.44-7,7.79-22.89-1.91-8.56,3.06-15.08-4.34-10.74-9.21-12.66-1.27-8.69-9.53-12.06L2411.7,516l-2.71.34-5.2-.45,2,2.26-5,3.62-1.7-3.06-5.54.12-4.18-6.22-8.37.45-6.33-2.82,3.62-2.83-.22-3.16,5.65-7.92-1.13-2.82,5.76-9.16-1.24-4.07,5.65-8.36,19.22-1.36,3.95,2.37.23-2.94,9.5,1.81,1.8-2,5.66,1.69-1.36-4.29,10.74,2.49,3.84-1.25,8.14,2.71-3.28,2.27,9.84.79,14.69-2.72-3.39-1.8-3.84.45-4-7.58,2-4.29v-1.58l1.35-1.93-2-3.61,13.11-2.38,4.52,2.38,1.81-1.7,3,5.77,3.17,1.92,2.26-.12,1,4.41,4.63-3.28,2.37-6.89,4.41.34-1.69-1.81-5.77-6.22,4.52-1.69,6,1.58-2.15,2,7.68,7.69.8,4.64-4.86,2.71.33,15.49-2.14,6.1-7.8,2.37,4.63,5.2-2,4,9.72,13.56,44.08,38.33,2.6-5.54-.34-6.79-3.84-5.54,2.83-2,3.84-.23-7.23-8.36,1.92-4.3,6.33.12.11-1.81-7.23-5.54-4.41-6.22,1.24-1,5.65,1.59.46-1.47-13.91-9.84V486l-2-1.93-4.75.23-7.57-5.88-.57-4.29-5-9.39,7.12.34,3.16,1.7.12-3.17,2.48-2.48,6.33,4.63.34-3.5,10.4-1.81,7,1.36,8,4.18-2.15-4.64,5.42-8.93,3.85-2.94,8-4.4-.11-2.94,17.3,2.6.11-2.83-17.75-8.59-6.22-4.3-8.13-1.47-2.49-3.16,7.46.45,2.83-.56v-2l1.8-1.36-10.62-6.55,1.13-1.47,1.69.22.12-2.6,2.37,1.7.23,2.6,5.08.79,5.09,3.39,7.69-1.35,10,2.82,3.84,4.07,9.83-.22,9.84,4.4.34-1.69,4.86.56ZM1829.35,681.7l-9.51-3.67-6.06-6.27-8-.22L1801,656.41l3.24-11.25-20.54-24.43-1.3-9.29-7.56-6.27,5.83-9.08,5.63-.87,6.26-9.29,12.11-5.19,6.82,4.5,4-2.84,5.56,6.3.13,6,3.21,3,5.18-1.11,1,4.08-3.83-1.49-14.57-2.84-4.69,4.94,2.59,3.34h-8.15l3.89,2.48,4.76,7.35,12.75,8.44-.21,6.48,5.19,11.89.65,8.22,5.4.21-2.16,4.54,6,1.09,5,22Z"/>
    <polygon points="2498.93 635.2 2498 641.58 2500.33 647.82 2505.01 651.56 2505.94 666.36 2495.5 678.04 2490.67 675.86 2489.27 683.96 2489.27 688.48 2481.79 688.17 2470.89 690.51 2467.77 689.88 2463.09 693.78 2459.36 699.39 2456.4 699.39 2456.86 703.44 2452.97 706.71 2450.63 711.08 2453.75 716.06 2456.4 712.94 2458.73 716.68 2458.11 724.01 2461.38 728.68 2465.43 729.46 2468.86 728.06 2467.61 720.89 2469.8 714.66 2465.12 710.45 2457.02 705 2462.63 703.91 2466.21 705.47 2466.99 702.04 2472.76 700.79 2482.42 697.21 2490.21 697.83 2489.58 700.95 2491.45 705.62 2498.01 709.2 2499.71 700.79 2498.65 696.22 2501.74 696.43 2503.92 696.43 2512.49 698.61 2514.67 694.09 2517.47 697.52 2519.03 696.27 2519.19 691.44 2521.37 689.26 2525.26 696.74 2526.82 692.38 2526.67 689.73 2529.16 687.86 2524.02 683.03 2523.39 674.46 2518.88 663.71 2521.37 662.31 2520.12 657.94 2519.03 649.84 2509.84 642.05 2505.94 636.44 2503.45 639.56 2498.93 635.2"/>
    <polygon points="2472.76 703.58 2477.7 703.93 2477.7 701.58 2480.64 701.46 2486.41 704.17 2487.7 706.87 2485.82 708.17 2485.82 710.05 2480.17 708.75 2478.76 709.7 2477.47 713.7 2478.41 716.28 2474.06 714.99 2471 709.93 2468.29 710.52 2471.82 707.81 2472.76 703.58"/>
    <polygon points="2483.81 596.8 2490.4 604.72 2492.6 610.65 2491.86 612.7 2495.38 617.24 2490.25 617.24 2486.74 616.43 2489.3 619.58 2488.57 622.22 2486.44 622.44 2487.62 625.95 2492.74 629.84 2494.94 634.01 2497.8 633.2 2496.84 631.37 2500.72 631.01 2496.48 627.56 2491.79 625.95 2492.08 623.17 2494.79 624.41 2496.11 625.66 2500.72 623.76 2515.81 629.1 2515.08 625.15 2517.72 619.36 2521.08 620.02 2525.84 616.95 2520.57 613.28 2518.45 606.91 2515.37 610.57 2500.51 606.33 2485.71 596.29 2483.81 596.8"/>
    <polygon points="2551.2 1141.6 2523.81 1137.39 2519.94 1135.63 2517.13 1141.6 2504.49 1140.9 2489.39 1162.67 2490.8 1168.64 2479.56 1165.48 2476.4 1173.91 2476.05 1163.02 2468.67 1156.7 2460.95 1162.67 2454.98 1162.32 2444.79 1181.98 2438.47 1180.23 2437.42 1183.39 2438.82 1188.66 2436.36 1192.17 2432.85 1183.04 2425.48 1189.36 2425.48 1198.49 2418.81 1202 2413.54 1211.84 2397.03 1214.64 2379.83 1222.72 2374.21 1220.61 2354.19 1233.96 2352.43 1239.58 2350.33 1233.61 2347.17 1240.28 2348.22 1245.9 2341.2 1254.68 2346.11 1270.83 2342.95 1276.8 2336.63 1270.48 2342.6 1284.88 2341.9 1292.95 2346.11 1301.73 2342.25 1315.08 2345.06 1329.83 2336.28 1343.52 2330.66 1343.52 2329.26 1350.2 2334.17 1350.2 2338.74 1357.22 2354.54 1357.22 2373.51 1348.09 2402.3 1347.39 2408.62 1337.9 2425.83 1331.93 2436.72 1332.29 2469.02 1324.21 2486.23 1332.99 2490.09 1354.76 2496.06 1355.11 2503.44 1346.68 2508.71 1344.93 2516.43 1335.8 2514.32 1345.98 2508.36 1349.85 2506.25 1356.87 2500.63 1356.87 2499.64 1359.95 2503.18 1359.24 2506.1 1359.42 2513.45 1351.18 2512.57 1358.8 2507.43 1364.03 2511.15 1364.03 2516.91 1361.46 2516.02 1364.82 2517.35 1368.37 2516.56 1374.48 2513.54 1377.13 2515.76 1386.88 2519.48 1387.77 2520.72 1390.33 2528.69 1390.07 2535.25 1394.59 2545.61 1389.45 2550.57 1385.73 2548.36 1390.42 2551.99 1390.51 2555.62 1395.21 2560.23 1393.08 2574.58 1385.11 2590.26 1383.34 2602.57 1364.73 2626.49 1338.51 2635.43 1332.84 2659.18 1295.9 2657.32 1283.5 2659.71 1281.55 2660.06 1274.56 2662.98 1271.37 2661.83 1267.47 2659.26 1262.42 2655.81 1254.89 2649.61 1249.13 2650.41 1241.07 2645.44 1237 2643.58 1240.27 2641.46 1238.94 2641.37 1225.84 2638.09 1222.47 2638.09 1220.79 2640.22 1220.79 2637.3 1216 2632.87 1215.91 2628.7 1209.54 2621.44 1206.52 2622.86 1201.92 2620.46 1198.11 2622.86 1192.17 2619.58 1182.87 2619.84 1168.34 2615.15 1163.3 2614.88 1161.26 2608.59 1164.45 2607.44 1154.79 2608.51 1147.44 2606.38 1139.91 2604.78 1138.4 2603.9 1130.16 2602.13 1128.22 2599.65 1129.28 2595.57 1141.33 2592.91 1144.43 2594.24 1147.53 2591.5 1150.27 2589.46 1169.41 2586.63 1174.99 2585.3 1181.54 2580.16 1187.48 2578.3 1192.7 2572.72 1195.27 2566.43 1190.67 2566.16 1188.01 2560.14 1184.64 2550.04 1176.58 2544.81 1174.72 2544.46 1171.71 2538.44 1167.46 2545.08 1159.66 2544.72 1152.66 2547.91 1150.89 2549.42 1152.49 2551.99 1146.91 2554.65 1142.83 2552.52 1140 2551.2 1141.6"/>
    <polygon points="2749.28 1411.01 2733.46 1420.66 2721.93 1433.27 2691.08 1443.19 2666.41 1461.69 2672.58 1464.38 2678.21 1467.33 2696.45 1461.43 2716.29 1442.65 2731.05 1440.78 2731.05 1436.22 2754.91 1421.46 2753.84 1415.03 2749.01 1415.57 2749.28 1411.01"/>
    <polygon points="2786.11 1354.34 2785.71 1367.75 2790.18 1370.06 2786.79 1375.88 2788.01 1376.69 2785.44 1378.19 2781.92 1387.94 2778.53 1389.84 2774.06 1394.58 2765.93 1399.05 2772.03 1405.01 2769.59 1411.51 2762.68 1416.52 2764.3 1418.56 2773.79 1416.25 2774.87 1412.87 2789.64 1402.16 2789.77 1398.1 2797.49 1395.93 2800.61 1397.83 2802.64 1392.82 2806.98 1391.73 2813.07 1382.52 2810.36 1382.52 2802.24 1386.86 2795.19 1384.01 2796.55 1373.99 2794.79 1373.44 2792.35 1380.08 2790.45 1379.81 2790.99 1376.02 2791.26 1371.28 2791.26 1367.75 2794.65 1361.93 2791.26 1357.19 2786.11 1354.34"/>
    <polygon points="2536.1 1410.61 2544.24 1417.17 2560.75 1412.19 2560.75 1415.81 2553.29 1424.41 2541.53 1434.36 2535.2 1438.43 2528.86 1437.3 2526.15 1429.84 2532.48 1426.67 2530.22 1418.53 2536.1 1410.61"/>
    <polygon points="2210.76 970.96 2229.89 998.48 2233.92 1008.21 2242.98 1009.89 2243.65 1019.96 2259.76 1046.13 2260.09 1053.85 2289.96 1083.05 2294.66 1078.68 2301.04 1084.06 2302.38 1056.87 2298.35 1048.15 2292.65 1047.81 2288.96 1036.4 2280.9 1034.72 2279.89 1029.35 2284.59 1026.67 2277.55 1019.28 2270.83 1017.27 2260.76 1005.52 2256.74 1008.54 2251.03 998.14 2237.94 988.41 2235.59 983.37 2230.22 976.66 2221.16 977.33 2210.76 970.96"/>
    <polygon points="2331.2 1007.87 2325.95 1022.24 2329.27 1026.1 2328.4 1031.35 2335.76 1038.01 2338.21 1054.83 2350.47 1055.18 2351.17 1059.03 2362.56 1056.23 2372.9 1060.26 2373.6 1065.52 2385.16 1061.14 2388.49 1065.16 2388.49 1053.78 2390.77 1048.35 2390.42 1040.81 2399.36 1033.98 2398.66 1025.04 2400.76 1019.79 2410.22 1017.34 2406.01 1011.2 2401.63 1008.22 2403.74 1005.77 2397.25 995.61 2400.41 993.51 2398.83 989.65 2401.63 988.95 2401.28 986.85 2408.47 984.92 2403.56 980.02 2407.76 980.02 2411.8 978.09 2411.8 973.71 2406.54 973.53 2403.56 970.73 2398.48 970.03 2398.13 965.65 2393.92 961.97 2390.07 965.3 2387.62 965.3 2383.06 973.71 2380.61 973.71 2379.91 975.81 2380.78 979.49 2377.28 981.94 2374.48 987.02 2368.52 982.64 2366.24 989.3 2361.69 994.21 2359.93 997.36 2349.25 999.99 2346.79 998.24 2343.99 1011.2 2339.96 1010.5 2336.81 1011.03 2331.2 1007.87"/>
    <polygon points="2508.19 1034.31 2512.1 1040.07 2519.72 1040.69 2519.72 1046.46 2536.81 1047.07 2534.55 1049.96 2528.78 1049.75 2526.1 1052.22 2521.78 1051.6 2519.93 1051.81 2519.93 1054.9 2523.01 1054.69 2526.93 1061.08 2524.87 1061.69 2527.34 1065.4 2530.63 1065.4 2532.9 1059.84 2540.11 1063.96 2544.22 1068.28 2560.91 1072.2 2570.17 1079.2 2574.29 1089.91 2572.23 1093.41 2572.64 1096.7 2567.49 1097.94 2563.79 1105.76 2572.64 1105.76 2576.35 1103.5 2582.73 1103.29 2590.97 1114 2602.3 1113.79 2605.59 1115.03 2611.56 1110.7 2608.27 1106.17 2604.36 1104.94 2614.24 1103.91 2615.47 1098.14 2623.09 1099.38 2633.39 1102.47 2643.69 1116.88 2646.78 1122.65 2658.31 1124.3 2669.01 1129.24 2670.66 1126.77 2673.13 1124.3 2663.66 1120.59 2666.13 1117.91 2661.4 1116.88 2660.37 1111.12 2655.22 1111.73 2652.34 1107.41 2651.1 1102.26 2644.1 1097.73 2642.04 1090.32 2651.51 1090.73 2650.69 1086.82 2642.24 1080.02 2632.98 1078.17 2635.04 1075.08 2632.57 1068.7 2624.12 1063.55 2618.15 1062.52 2615.27 1059.22 2596.32 1050.78 2578.52 1046.4 2568.61 1040.24 2563.54 1043.14 2562.09 1046.88 2557.13 1047.73 2548.56 1058.6 2543.84 1057.39 2538.29 1049.18 2538.53 1043.74 2537.56 1042.29 2538.77 1040.24 2536.96 1035.16 2538.05 1034.68 2534.78 1032.99 2532.13 1033.11 2523.19 1029.85 2517.15 1034.56 2508.19 1034.31"/>
    <polygon points="2297.05 1089.42 2302.52 1091.41 2301.77 1097.87 2317.93 1101.11 2323.64 1099.12 2332.09 1100.36 2350.73 1107.57 2360.67 1104.83 2370.61 1110.05 2370.61 1105.58 2378.07 1108.81 2379.81 1104.58 2376.33 1101.35 2372.13 1104.22 2368.61 1099.53 2358.84 1098.36 2356.63 1095.89 2361.58 1095.89 2368.74 1092.5 2354.8 1092.11 2344.9 1088.46 2342.82 1089.24 2341 1087.55 2337.87 1092.24 2321.58 1090.28 2320.41 1085.98 2303.47 1082.47 2299.05 1086.77 2297.05 1089.42"/>
    <polygon points="2412.01 1048.51 2409.01 1052.32 2409.83 1059.12 2414.86 1059.26 2415.14 1069.33 2412.69 1078.71 2415 1080.62 2421.26 1078.3 2421.26 1073.13 2422.21 1068.1 2421.26 1055.17 2425.2 1050.96 2427.65 1052.32 2427.38 1056.26 2426.29 1058.98 2432.14 1065.38 2431.05 1071.09 2435.27 1071.77 2438.13 1068.1 2442.62 1066.6 2437.31 1060.48 2439.08 1057.35 2430.51 1044.83 2433.91 1044.83 2434.59 1042.66 2436.63 1042.52 2443.3 1035.99 2447.93 1035.99 2446.84 1032.45 2439.9 1033.68 2437.18 1034.63 2432.69 1034.22 2426.97 1040.75 2423.98 1040.75 2423.43 1036.67 2421.12 1034.49 2420.03 1026.47 2423.84 1021.57 2428.47 1022.93 2433.64 1021.16 2434.86 1021.98 2444.8 1022.11 2447.24 1023.34 2457.45 1022.79 2462.62 1012.59 2461.39 1010.41 2454.59 1018.3 2445.2 1017.22 2442.48 1018.44 2436.5 1016.4 2432.01 1016.26 2429.97 1013.95 2426.84 1014.09 2424.93 1018.3 2422.07 1016.81 2418.26 1023.88 2418.4 1033.13 2414.32 1037.08 2414.05 1045.52 2412.01 1048.51"/>
    <polygon points="2443.93 1124.27 2447.89 1116.49 2456.95 1111.67 2459.36 1108.13 2476.77 1105.59 2476.77 1108.28 2468.84 1112.38 2462.19 1112.95 2454.69 1121.16 2448.17 1124.98 2443.93 1124.27"/>
    <polygon points="2486.26 1053.2 2485.97 1058.3 2491.07 1060.7 2493.2 1058.02 2498.15 1059.86 2500.84 1057.45 2509.76 1063.39 2509.76 1058.3 2507.07 1057.73 2506.5 1055.04 2498.29 1052.35 2494.47 1053.77 2486.26 1053.2"/>
    <polygon points="2654.13 1078.99 2666.11 1079.19 2670.24 1076.07 2674.06 1078.59 2679.3 1073.85 2683.33 1073.55 2682.02 1066.81 2688.46 1066.81 2688.66 1072.65 2686.55 1074.36 2686.75 1079.09 2681.72 1079.79 2678.7 1083.42 2665 1086.44 2661.88 1083.62 2656.24 1082.61 2654.13 1078.99"/>
    <polygon points="2383.89 1104.22 2394.53 1104.44 2398.38 1107.38 2399.51 1103.99 2408.34 1105.35 2409.02 1108.52 2400.42 1109.42 2392.72 1112.59 2382.54 1109.65 2383.89 1104.22"/>
    <polygon points="2414.76 1109.29 2423.41 1110.58 2431.64 1110.58 2439.44 1108.78 2441.41 1106.81 2448.61 1106.63 2457.17 1106.03 2455.55 1104.23 2446.89 1104.58 2440.38 1104.06 2435.07 1107.75 2427.36 1107.15 2423.93 1105.18 2419.73 1105.01 2415.28 1106.81 2414.76 1109.29"/>
    <polygon points="2408.25 1118.03 2413.65 1120 2418.62 1124.37 2423.07 1122.57 2418.27 1117.77 2415.53 1114.86 2408.42 1115.97 2408.25 1118.03"/>
    <polygon points="2410.74 850.45 2410.74 870.95 2406.92 871.55 2413.96 887.63 2420.79 887.83 2417.37 892.25 2423 897.68 2426.01 894.06 2420.99 881.2 2421.99 875.57 2426.41 873.16 2428.63 863.72 2424.61 858.49 2423.6 851.86 2420.39 852.66 2414.36 850.25 2410.74 850.45"/>
    <polygon points="2461.67 934.26 2461.46 940.74 2449.47 949.01 2445.64 943.81 2441.19 948.38 2435.56 950.39 2433.44 959.31 2436.94 960.79 2436.41 959.1 2438.11 953.15 2442.36 956.55 2445.54 951.88 2451.16 955.81 2450.84 959.73 2452.97 967.05 2460.08 971.51 2461.99 969.5 2461.99 973.21 2463.26 975.23 2465.91 968.96 2461.78 961.11 2465.28 957.18 2467.29 960.16 2469.2 965.14 2470.26 960.26 2472.81 958.88 2469.95 946.36 2467.61 944.13 2469.31 942.86 2465.91 937.24 2463.68 936.71 2462.31 935.22 2461.67 934.26"/>
    <polygon points="2410.13 920.04 2408.8 926.13 2403.47 931.37 2401.85 935.55 2395.95 940.5 2392.82 947.45 2397.76 945.26 2399.86 939.45 2405.56 936.22 2406.89 930.23 2411.94 926.71 2410.13 920.04"/>
    <polygon points="2439.91 923.09 2438.39 931.27 2435.53 931.94 2436.29 936.12 2439.62 937.65 2440.86 940.6 2443.71 939.74 2445.43 934.79 2448.37 928.32 2447.71 917.95 2446.28 927.85 2442.95 938.22 2441.91 931.46 2443.81 927.18 2443.81 923.47 2439.91 923.09"/>
    <polygon points="2415.65 898.74 2418.5 902.16 2423.45 910.44 2426.4 909.87 2425.64 903.59 2422.4 899.59 2415.65 898.74"/>
    <polygon points="2430.49 914.91 2431.53 916.43 2430.96 927.09 2435.72 925.75 2437.15 926.51 2437.43 923 2440.95 920.52 2440.19 916.72 2436.01 916.72 2430.49 914.91"/>
    <polygon points="2448.74 907.68 2456.04 916.39 2453.84 919.38 2451.21 917.18 2451.21 922.55 2454.72 924.49 2454.81 930.82 2458.42 931.61 2458.77 927.21 2456.13 919.91 2458.95 921.5 2462.55 921.41 2459.3 916.48 2459.12 910.32 2456.13 907.77 2448.74 907.68"/>
    <polygon points="2450.33 930.2 2447.16 933.02 2448.13 935.04 2452 935.48 2453.93 933.99 2452.61 930.64 2450.33 930.2"/>
    <polygon points="2428.07 894.32 2433.97 900.47 2433.88 897.83 2433.26 894.93 2434.84 894.84 2435.55 897.39 2438.89 899.33 2441 903.9 2444.61 904.87 2446.89 907.33 2446.72 902.93 2441.62 897.13 2445.4 896.43 2447.6 897.13 2447.34 893.7 2444.34 895.99 2438.45 893 2438.01 896.25 2436.87 895.19 2436.87 893 2433.79 890.88 2429.13 891.94 2431.33 895.55 2428.07 894.32"/>
    <polygon points="2440.08 906.91 2439.82 914.38 2442.42 911.86 2447.45 915.24 2447.37 911.68 2443.46 910.21 2440.08 906.91"/>
    <polygon points="2082.19 934.6 2083 939.63 2080.99 949.49 2084.61 969.81 2090.24 970.61 2099.69 962.77 2098.29 953.91 2092.05 944.46 2087.22 936.41 2082.19 934.6"/>
    <polygon points="1638.88 439.67 1635.38 445.75 1622.28 455.46 1616.02 462.37 1618.3 461.48 1615.99 462.44 1614.54 459.53 1603.67 462.54 1587.57 466.75 1583.55 464.33 1574.9 459.09 1574.91 450.23 1571.7 442.58 1573.72 437.15 1577.74 435.55 1592.65 424.3 1595.06 423.29 1594.06 418.26 1589.84 416.04 1577.16 417.64 1570.91 424.68 1573.93 428.1 1567.89 432.92 1552.99 439.14 1547.14 451.01 1548.14 459.26 1552.77 460.27 1562.02 466.12 1555.37 470.54 1555.77 473.15 1544.9 477.16 1543.27 494.06 1540.85 499.29 1533.21 498.88 1528.78 502.3 1528.97 504.71 1519.52 504.3 1519.52 501.89 1515.5 498.86 1518.92 495.04 1512.29 488.8 1511.49 481.76 1507.67 478.33 1507.68 472.9 1504.46 472.89 1501.85 469.07 1501.04 474.3 1497.01 474.29 1481.71 483.13 1476.69 480.31 1469.25 475.07 1471.46 474.27 1471.87 470.44 1467.64 470.44 1467.65 465.81 1470.27 460.99 1467.05 459.17 1467.67 446.29 1474.71 445.09 1481.16 438.26 1485.58 438.27 1489.61 433.84 1494.44 435.26 1504.71 426.82 1507.33 427.42 1507.33 423.6 1520.23 407.52 1528.68 401.69 1528.69 399.48 1544.39 390.64 1542.79 386.41 1553.66 380.99 1564.32 381.61 1571.57 378.2 1591.69 376 1589.68 378.82 1596.52 375.41 1598.53 378.23 1604.17 373.6 1607.38 377.23 1610.61 374.82 1624.69 379.46 1617.24 380.86 1620.46 383.88 1630.7 383.04 1628.83 384.7 1618.07 387.04 1612.57 392.07 1613.62 396.51 1618.42 397.22 1622.86 401.08 1617.83 406.69 1624.73 413.24 1626.14 417.45 1624.15 417.45 1623.91 419.44 1625.43 420.96 1624.15 424.12 1627.07 424.7 1626.84 427.63 1630.81 428.91 1631.28 430.9 1628.36 433.71 1638.88 439.67"/>
    <polygon points="2330.11 837.28 2315.94 837.42 2310.75 843.32 2312.71 852.71 2320.15 853.56 2325.62 850.47 2326.04 843.03 2329.27 840.51 2330.11 837.28"/>
    <polygon points="2409.23 790.15 2406.56 787.9 2401.93 791.27 2398.43 802.63 2401.65 813.86 2406 815.96 2410.07 807.54 2410.07 799.69 2410.63 796.18 2409.23 790.15"/>
    <path d="M1030.07,521.33l-5.9.51-1.28-2.69-6.92-1.54-13.58,6,.12-3.33,17.18-4.74,7.17-3.08-3.07-1.79-5.13.51-3.2-4.1-7.31-.64.64-3.08-6.28-9.1,5.13-1.28.13-2.31-3.08-3.58,4.1-3.34-4.61-4.61L1003,467.88l-.64-7.17-11.92,9.86-5.64,5.51-2.31-1.53L971,481.47l-2.82-6.67-6.54.26,4.23-4.61L972,456.6l-11.66-2.05v-4.23l-7.56-6.4-8.46,2.94-14.87-3.58-9,4.35,1.15,4.49-6,5.38-1.79,9.61-13.46,9.23,5.64,6.92-2.69,12.31-16.79,12.3-16.41,4,.64,7.56-5.25,15.51-6.15,7.56-3.21-1.79-3.33,3.07-3.33-1.53-.64-5.64-5.9-9.74,6.41-7.31-.13-6.41,6.15-6.15-17.94-1-4.36-2.57-10.25-3.2V496l-15.51-7.43-13.2,2.3,4.62-4.48,1.92-10.64-8.46-1.79,11.54-13.46,22.68-15.64,18.33-4,3.33-4.36-4.36-3.07,7.69.51,6.15-3.2,9.49.25,15.63-9.61L871.79,420l-6.54-4.74,8.33.25,4.87,3.21,10.26-1.54,7.17-4.74-2.56-2.82,7.43.26.64,2.3,1.93.51,4.61,4.11,3.08-5.52-.39-4.22,3.85,3.2,12.43-4.36h5.77l.89-2.82-1.66-9.61h6.15l4.74-1.67-3.2-6.92-16.15-1.28-4.23,3.21,3.2,3.46H916.9L906,398l-3.33-1-1.8,5.13-5.38.64-2.82-4.62,3.46-3,1.92,1.29,2.57-4.1-4-4.87L884,395.34l1.93-7.69,4-1.53-3-1.29-7.3-1.15,10.12-4-2.05-4.87,3-4.87-4.74-2.82,10-4.36-.38-3,9.87,1.41,20-9.23-17-2.3-11.67,1.54v1.28h-3.59l-9,8.33,1,2.3-4.62,4.75-6.28,1.28v1.28l-4.48.9L859.87,381l1.28,2.69,8.08,2.69L863,390.09l1.41,1.41-7.69,6.15-7.82.51-4.36,7.18-3.84-3.46,9-6.92-4.74-1.54,9.61-.64.13-4.87-6-4.74-8.71,5.25-7.18,1,5.13,3.59V396l-5.26-1-4.23,4.1-24,.26-3.08-2.95-7.18-.13-3.07-6-17,3.71-2.56,6.28-4,2.18-6.8-2.31-.25-3.71-14.36,4.23-17.94-1.54,5.51-2.95,6.15-.13.13-2.94-6.79-3.21L723.51,391l-14.36-4.75-3.71-4.61-12.18,2.56-5.77,2.57,2.69-3.85-5,.13-6.8,2.82-3.07-1.15,1.15-7-5.38.25-7.56,4.49-33.9,1.76-20.49,7.23-11.57-5.3-12.29-1.21-7.71-4.1-11.33,1-4.58-2.17-32.29-1.45,1-6-14.7,1.44-2.89-3.13-28.93,7.71L460.92,382,444,390.18l-20.24,1.45-6.75,4.1,4.82,5.3-1,3.61,7.23,1.21-4.8,2.28,2.39,2.24-8.06,3.73-11.5.3,4.18-4.33-11.35.15-7.76,3.44-16.58,4.78,3.58,2.83-3.73,5.38,8.36,2.84,9.26-4.63,3.14,2.68,14.48-4.62-1.64,2.53-4.18,1.8-4,6.42-13.44,1.94-11.95,4.18-4.93-1.94-9.7,5.52-13.29,1.94-7.77,7.77,1.35,4.18L332.25,461l1.05,5.68h9.41l8.36-3.89-4.48,7.62L340,473.54l-5.53,4.77,13.89-3.73,5.82.3-.59,3.29,6.87-3.44.14,2.09,9.56-.75-16.13,8.37-14.78,7-23,9.86-5.08-1.94-19.56,8.06L283,507l-11.5,6.58,13.89-1L296.86,507l13.44-3.88,12.55-.6,34.94-11.79,3.13-3.29L395.27,475,393,471.3l32.25-14.49,15.83-3-2.54,2.83L429,458.45,411,472l18.21-4.48,6.43-3.13h8.81l6.86-8.36,11.05-.3-1.94,3.73,6.87.6,3.59-1.35-3.29,5.68,3.88.3,17.62-1.2,1.59,3.57,9-2-4.51,3.67,3.38,4.23v3.11L509,478.38l.28-3.1,2.54,5.08L501.07,484l-.85,11.56,4.8-9.31,5.64-.56-.28,4.51-4.51,4.24,2,3.1,3.67-1.69-8.18,4.79L499.1,510l6.77-3.38v5.08l8.46-9,2.54,3.38-9,12.7v4.51l5.64,3.67-5.64,3.1,1.69,4.24-3.38,7.61,11.57,9.88,7.9,9.31-.57,10.44-5.36-.29,3.67-3.66L516,558.79l-.51-6.77-6.25-2.21-6.11-3.36-4.65,1.45,11.82,21.21-3.2,3.43-.46,8.38-23.33,36.14L478,620.27l-4,13.07-9.87,11.53,1.79,5.26-3.2,7.3,2.82,10.38-1.16,7.05,3.46,2-3.46,5L469,694.22,467.82,700l14,4.49,4.87,6.79,2,33.71,5.13,3.07,3.46,8.85-3.46,5.64h-5.77l9.62,11.79,3.2-1.29,2.69,4.87,2.95,1.29L506.4,785l-3.46,6,12.94,12.3,1.29,7.31,5.89-4.36-4.61-10.64-3.85-.13,2.18-5.64-3.71-9.22-.39-7.82-6-10.25V756l-9.23-15.89,2.43-3.59v-8l2.44-2.43,3.08,2.82,4-.39,4.74,2.57L512,734.46l1,14-1.54,5.51,3.2-.51,5.13,7.81,3.84,1.67-.38,5,7.56,6.28-3.2,7.69,10.25,6.79v2.69l6.79,8.59,7.69,13.46-.26,5.63,2.18,5.77-.89,4.87-4.36,2.69,2.69,11.79,8.2,3.08,2.82,5,9.87,5,4.23-1,3.2,5.26,18.59,7,17.94,9.36,15-5.13,8.34,1.93,11,12.81,6.15,5.9,11.28,3,3.84,3.2,3.46-.9L686,901.2l2.3-1.54,1.67,2.56-2.82,2.31,7.94,6,7.44,10.77-1.41,4.48-1.54,4.36,6.92,5.51,1.92-2.31-1.92-4,4.23,3.08v3.84l8.2,4.1-.89,5.13,4.61,1.79,7.69.13,4.74,3.08.13,4.74,2.82-2.69,2.56,5.64,8.46-4.62-5.89-4,5.12-2.56,4.36-5.26,5.13-.89,1.92,2.82,4.36,3.33-2.57,2,3.46,8.71,4.62-4.61,1.92-2.44-2.31-5.38.77-1.15-6.66-7.56-11.54-1.41-6.92,5-8.07,2.56-3-2.18-3.59-.38-.77-3.85-3.33-2.18-6.54-10.64-2-4,3.46-5-1.15-3.84,2.56-3.59L724,895.3l3.07-11.15L722.61,882l-3.85-6.53-7.69-.39-5.89-.51-6.92,2.82-8.08-2.18L685.7,877l-5-1.15,7-6.66,1-8.72,3.34-6.28L698,840.83l-2-.9,3.33-7,4.87-4.49.52-7.3L699,822.5l-5.39-1-17,4.61-5,12.69-7.82,9.74-2.18,3.33-5.76-1.92-18.46,4.36-3.07-4.36-7.69-1.15L623.16,837l-5.77-12.43,1.28-3.46-2.43-9.23,5.89-24.74,4.49-1.66,1.53-4.75L627,768.55l8.84-10.38,12-5.13,17.82-9.35,10.76,3.07,5.26-1.54,3.2,4.62,10.64-1.41,5.89,2.56L699,746.63l.38-4.1L693,740.61l3-2.82,6.92,3.72,7.31-2.31,2.69-3,2.31,3,12.43.38,5.51,5.52,10.51-3.72,6.15,7.82,2.31,1.66-3,10.13,1.15,11,3.59,7.3,3.08,3.34,1.15,5.12,7.31-1.79v-6.67l4.1-7.3L766.7,758.3l2.18-2.82-2.57-3-.89-17.43,10.76-14.61,14.1-7.82,6.79-7.82,4.1.9,9.23-7.82,9.1-2,6-17.68-1.92-5.26,1.79-3.72-4-8.33,4.49,2.57,4.48-7.56-.64,7.68,2.31,2.06-4.61,7.69,2.43.12,9-10-1.92-8.72,4.23-5.89L840,654.36l1.79,5.12,9.87-11.4v-6l6.15-1.28,7.82-2.43-8.33.51,7.94-3.59,9.74-.9,2.57-2.43,2.43,2.56,5.77-1.28,1.28-6.15-2,1.54-2-3.46,2.95-.9-1-4,9.23-8.21,7.56-1.92,3.33-4.36,3.34,1.93,13.07-4.87-.51-3.85,8.2-.13L942.66,593l-4.36,3.71,2.31,2.82L927.54,604,924,611.81l4,2.56,11.67-6.54,1.53-2.82,3.85.26,21.79-7.56-.52-1.92,5.26-4.49.13,4.23,5.51-6-1.92-1.28,2.3-4.62-1.41-1.92-11,9.48-2.18,2.69-2.43-2.17-4.1,2.69-8.08-2.82-.13-2.57h-2.94l-.77-8.58-1.54-.13,5.77-5.38-11.41-2.57,3.08-2.56,4.61,1.92,9.48-2.05.26-7.3-10.25-.9-24.23,7.43-18.71,13.59-5.51.13,13.2-7.69,18.07-14.36,9-.25,8.08-7.69,26.91-1,6.41,2,13.2-2,15.12-8.71,8.21-2.18,3.07,1.15L1029,535.3l3.59-10.39ZM821.44,592l2.33,10.62-1.42,2.94-5.77-2.53-.91-4.56h-2.94l1,4.36-5.36,4.25-3.14,8.6-8.4,3,1.52-8.4-8.1,2.53-1.21-1,7.89-6.37,1.82-4.76,1.42-2.73-2.73-1-6-4,8.6-1.72-1.21-2.94Zm-69.8-5.58-.64-3.14L743.07,585l10-7.65,15.12-4.52,2.86-4.7,4,.18,6.64-3.5,10.88,1.84-.18,6.27,7.46.93-1.66,2.67,1.48,2.12L797,585.44l-3.13-2-7.47,1.48L783,586.73l-6.36-.09-.74-2.21-5.16-1.66,5.25-4.06-10.32,3.23ZM781.45,600l-12.24,13,.71,4.55-7.7,12-6.68,2.22L753,629.29l3.54-10,7.9-11.94,7.69-7.69-6.37,2.83-2.23-.4,11.34-9.32,15.89-1.31-.81,3.74-6.68,7.39ZM816,626.49l-14.61,4.79-8,3.57-8.42-3.77,5.48-4,4.87.71,9.84-5.91,6.6,1,3.45-2.65,9.33.71ZM848.36,614l-2.73.51-4.76,2.22-9.21-1.62L824,617.85l-4.25-1.12L826.9,612l10-2.53,5.07.6,3.74-1.82,2.63,1.32Z"/>
    <polygon points="764.9 957.84 769.01 963.28 768.47 973.41 769.56 988.62 762.68 1002.38 756.7 1003.65 755.43 1014.33 749.46 1016.14 741.86 1031.35 737.51 1047.46 741.13 1051.98 748.19 1050.72 746.38 1057.96 734.43 1067.55 738.6 1078.23 737.69 1082.94 748.56 1090.18 772.82 1139.06 782.77 1151.37 783.32 1161.51 792.91 1171.83 836.72 1200.61 842.15 1229.22 842.33 1241.71 840.88 1244.24 843.06 1265.42 843.06 1303.08 845.41 1309.6 842.69 1315.75 851.2 1341.46 849.21 1369.34 845.05 1380.2 854.82 1400.12 853.56 1405.91 857.54 1418.58 857.72 1424.92 861.52 1434.87 865.14 1434.87 862.97 1425.64 864.6 1419.31 868.76 1425.1 869.31 1434.51 875.64 1451.53 874.74 1461.85 866.95 1459.86 862.25 1465.65 866.05 1471.26 867.5 1467.64 872.93 1468.73 876.19 1473.8 875.28 1478.5 879.81 1479.59 880.35 1485.74 874.19 1485.74 879.08 1493.89 885.24 1494.07 886.14 1505.48 894.65 1509.82 898.63 1514.71 906.96 1514.35 905.88 1517.79 900.63 1517.97 900.63 1521.23 914.38 1519.6 916.56 1522.68 907.32 1525.57 910.58 1527.56 919.82 1526.48 917.82 1532.09 925.43 1533.54 925.43 1522.49 928.5 1524.49 928.5 1529.37 932.13 1529.37 932.13 1533.36 942.26 1537.52 931.22 1538.79 937.01 1541.5 956.75 1545.49 962.72 1543.13 970.87 1543.68 973.04 1542.41 959.1 1535.89 945.16 1527.56 938.64 1520.5 929.95 1521.77 930.68 1517.61 936.65 1517.61 927.78 1506.38 926.88 1500.41 933.94 1497.33 931.76 1488.64 941 1477.78 939 1473.62 923.25 1466.01 921.08 1455.51 931.22 1450.44 929.23 1437.23 935.02 1430.89 930.5 1428.72 930.5 1425.28 925.79 1420.75 922.89 1413.69 938.1 1417.13 946.61 1411.52 941.72 1407.17 943.89 1399.39 939.19 1395.41 963.45 1393.42 973.58 1389.07 976.66 1371.51 969.6 1367.17 970.14 1360.11 956.57 1352.14 960.91 1350.87 977.75 1357.03 983 1356.3 988.79 1357.21 997.12 1345.26 1003.27 1334.22 1003.27 1325.35 1008.88 1314.67 1011.96 1314.3 1011.06 1322.27 1007.44 1326.25 1013.23 1324.62 1015.76 1311.59 1025 1298.73 1022.28 1269.77 1043.46 1252.39 1062.47 1242.43 1063.19 1245.51 1076.23 1244.24 1076.05 1236.82 1082.02 1234.29 1080.94 1226.14 1090.89 1211.3 1089.63 1198.98 1094.69 1193.92 1092.7 1149.2 1097.77 1150.29 1107.37 1128.74 1125.11 1107.02 1123.84 1088.19 1119.32 1072.8 1107.73 1074.07 1078.58 1053.97 1066.09 1053.79 1053.6 1048.54 1041.11 1057.05 1040.93 1044.2 1016.13 1031.35 1007.62 1040.76 1009.79 1029.54 993.68 1028.09 987.7 1036.05 985.35 1030.8 994.95 1020.3 996.57 1011.07 989.51 1001.66 987.16 987.17 970.87 973.96 955.66 968.53 936.65 969.43 927.24 959.29 912.94 944.63 908.59 942.46 908.59 933.59 892.84 928.16 901.71 925.26 903.88 927.98 903.34 921.1 882.34 926.16 873.83 931.41 862.61 925.62 849.94 926.53 845.95 920.19 836.36 918.56 821.88 923.63 825.5 939.02 818.62 939.02 813.55 933.77 819.52 931.23 817.71 915.48 824.41 910.41 819.88 906.43 807.03 917.66 799.61 919.1 798.7 922.54 792.37 922 785.13 928.16 784.94 937.93 781.5 938.11 775.17 943.91 775.53 952.78 771.44 950.79 764.9 957.84"/>
    <polygon points="722.87 817.71 731.73 818.36 738.82 811.75 746.87 811.11 746.71 812.56 743.65 814.98 752.35 818.04 757.34 817.71 761.69 820.61 770.71 821.58 772.16 824.8 774.57 828.83 783.43 831.57 783.43 833.82 777.63 838.98 789.55 835.59 796.8 838.49 800.18 837.04 809.53 833.66 800.51 829.63 796 828.99 795.35 825.93 789.55 825.93 772.96 813.69 767.33 814.01 763.62 810.47 745.42 806.76 740.91 808.69 729.15 811.27 722.87 817.71"/>
    <polygon points="770.23 852.51 775.7 850.41 789.23 854.92 788.26 857.5 773.61 857.66 772.32 853.79 770.23 852.51"/>
    <polygon points="813.88 839.78 819.35 844.77 819.03 849.93 809.53 851.38 803.41 849.93 803.08 851.7 807.27 855.4 810.98 853.96 823.38 852.99 826.12 859.59 834.33 853.31 836.43 854.92 842.06 851.38 848.35 851.38 849.47 853.47 852.53 848.96 848.83 844.77 842.55 844.29 841.74 840.91 828.21 837.2 824.02 838.98 818.39 836.72 813.88 839.78"/>
    <polygon points="862.68 851.7 862.36 856.86 873.79 855.89 876.05 851.22 862.68 851.7"/>
    <polygon points="1057.9 319.67 1064.99 327.41 1056.29 328.37 1068.53 337.07 1098.17 333.85 1116.21 338.68 1115.57 343.83 1120.72 344.16 1120.72 359.94 1110.09 368 1116.86 372.18 1128.13 368 1126.2 373.47 1131.03 374.12 1131.03 378.63 1120.72 374.76 1114.43 375.6 1114.43 376.58 1122.2 380.22 1131.63 382.57 1125.44 393.58 1116.1 393.48 1100.68 406.06 1103.13 407.73 1098.61 413.13 1103.82 418.73 1102.54 428.66 1113.06 458.73 1125.54 457.35 1137.33 467.27 1149.81 460.4 1158.55 442.32 1174.57 433.08 1174.57 422.96 1181.35 421.88 1186.65 415.59 1194.42 417.26 1200.02 411.76 1197.56 418.14 1200.31 418.14 1212.4 411.46 1218.98 412.15 1231.95 399.67 1240.2 398.49 1240.2 395.35 1248.65 397.71 1280.49 391.71 1305.74 381 1292.58 381 1288.15 378.45 1281.67 380.02 1281.18 376.97 1287.86 376.68 1287.37 374.32 1290.02 370.88 1295.03 371.57 1296.11 374.62 1296.11 376.19 1299.65 378.84 1310.36 378.84 1310.36 370.88 1305.74 366.17 1297 361.74 1295.72 358.11 1305.25 357.81 1305.15 355.65 1315.96 357.13 1324.41 354.87 1324.71 350.54 1323.82 349.07 1331.88 348.97 1332.17 346.51 1327.85 342.88 1333.35 342.39 1334.83 336.69 1332.67 334.33 1322.94 333.25 1331.09 329.42 1342.1 330.69 1343.87 325.58 1335.32 325.39 1336.99 321.85 1331.68 321.85 1327.85 323.92 1327.65 322.15 1334.34 317.82 1341.9 316.55 1345.64 309.96 1352.51 310.26 1365.19 304.75 1363.22 303.57 1371.48 303.28 1372.95 301.12 1379.24 301.9 1388.58 298.07 1372.46 296.4 1359.19 297.38 1356.05 299.15 1345.83 297.78 1328.34 302.69 1337.58 297.48 1336.2 295.52 1328.05 295.91 1324.02 298.17 1321.27 296.11 1323.53 294.93 1341.51 293.36 1331.78 290.21 1323.33 291.88 1325.3 289.23 1308.1 287.95 1259.27 288.35 1257.2 290.61 1245.81 290.7 1241.78 288.94 1218.98 289.92 1228.02 293.95 1219.47 292.47 1213.18 292.67 1222.52 295.52 1223.4 297.58 1215.44 295.62 1204.34 293.85 1194.91 292.77 1195.79 298.07 1182.82 294.24 1178.69 297.29 1178.11 294.54 1138.61 297.58 1135.95 302 1130.15 300.63 1118.07 301.51 1109.72 304.26 1097.83 306.82 1101.17 308 1109.52 308.49 1105.69 311.53 1100.28 314.97 1089.87 313.5 1086.43 315.76 1084.07 314.48 1078.37 317.13 1066.78 317.63 1057.9 319.67"/>
    <polygon points="952.55 351.77 930.72 356.41 907.5 369.88 911.21 373.83 908.42 377.31 913.47 381.02 919.23 378.14 928.03 381.7 949.03 379.66 962.58 382.88 967.15 379.66 977.82 386.78 972.9 389.99 973.58 392.36 981.2 390.84 988.82 397.1 988.48 403.54 969.18 412.51 969.18 417.25 958.85 419.63 945.47 418.95 944.8 421.32 937.18 423.86 935.65 427.92 939.89 428.94 952.42 426.4 959.87 429.11 966.3 426.57 966.64 431.65 971.55 433.17 968.67 438.59 972.57 441.64 980.52 441.64 982.73 444.35 1001.18 449.76 1001.35 445.36 996.1 438.76 991.53 437.74 990.18 433 996.27 435.37 998.81 434.02 1009.99 444.18 1017.95 433.51 1015.75 422.5 1008.29 416.75 1012.7 414.88 1012.7 411.84 1016.59 413.02 1018.62 410.14 1025.06 415.05 1024.55 421.49 1032 422.33 1036.06 416.41 1040.13 416.58 1052.49 409.13 1049.95 405.06 1044.02 405.4 1042.16 401.68 1038.77 398.8 1028.11 396.6 1027.94 393.89 1021.16 393.89 1024.55 388.98 1032.85 388.81 1027.6 384.57 1031.15 379.16 1024.89 374.25 1018.45 373.4 1017.95 371.54 1013.54 368.66 1008.46 370.01 1000.5 361.04 989.16 360.36 1000.17 358.84 997.12 354.43 984.42 353.93 978.15 352.06 975.95 356.13 978.15 357.48 977.99 360.02 985.81 361.84 981.88 363.72 976.58 362.18 968.37 366.2 973.5 360.73 972.9 353.72 951.27 355.26 943.24 360.56 945.21 363.89 937.77 365.77 939.56 370.13 934.35 367.65 938.45 362.1 938.19 358.25 952.55 351.77"/>
    <polygon points="704.61 365.31 710.47 369.79 708.91 374.79 722.7 370.14 729.93 371.34 737.34 363.42 741.82 364.11 755.43 360.14 746.99 366.18 739.41 368.24 742.68 370.48 749.92 371 736.65 373.93 737.86 376.34 752.5 378.24 757.5 376.34 768.35 378.06 763.36 380.65 757.15 378.75 732 382.71 734.41 387.19 746.3 387.88 745.27 393.22 768.01 393.22 792.64 386.33 795.06 389.09 809.7 391.67 820.73 388.57 817.97 385.81 822.79 383.4 830.72 384.95 832.78 380.3 821.07 376.17 819.69 372.38 824.86 370.14 828.65 359.28 839.68 354.98 837.26 353.25 826.61 353.25 826.51 356.09 822.25 356.09 815.86 356.19 807.43 367.76 802.16 368.78 807.13 361.67 800.53 359.64 797.69 362.08 790.69 362.79 794.14 359.34 785.01 358.83 776.69 361.47 781.76 355.28 774.46 355.38 777 351.73 771.72 348.79 756.8 348.69 753.96 347.06 731.34 349.09 731.34 351.53 718.45 357.92 717.64 360.15 704.61 365.31"/>
    <polygon points="814.64 324.44 801.04 326.57 782.88 330.42 762.79 335.29 774.36 337.73 795.66 331.34 792.72 335.7 795.97 337.02 784.2 341.38 790.49 343.82 805.4 339.96 803.99 343.41 816.77 342.8 815.86 344.63 795.87 347.16 799.72 349.6 820.12 346.35 827.12 343.51 840.21 344.02 847.11 342.4 857.46 334.89 845.59 335.19 848.12 330.73 834.63 333.47 835.95 335.19 833.11 335.9 833.92 338.44 821.34 339.86 821.64 335.9 810.78 332.15 800.23 335.09 798.3 333.37 809.97 329.61 811.19 327.99 816.97 326.06 814.64 324.44"/>
    <polygon points="852.38 360.76 851.27 357.72 843.35 359.54 846.4 363.2 849.44 364.51 853.8 371.31 863.24 368.68 874.4 366.75 879.27 360.66 874.5 357.92 882.21 356.09 886.78 351.43 882.11 351.43 882.21 349.6 871.56 351.93 869.33 350.72 857.25 355.08 859.69 356.8 859.28 360.36 852.38 360.76"/>
    <polygon points="1017.63 544.77 997.17 566.6 985.09 576.35 1004.38 576.74 1015.88 576.74 1013.54 582.58 1024.84 578.3 1029.91 586.48 1036.93 574.2 1032.05 576.93 1029.72 573.42 1037.71 567.77 1029.91 566.8 1030.69 563.49 1034.98 562.32 1028.94 558.42 1019.39 558.61 1022.12 554.91 1018.68 554.74 1014.16 556.09 1023.48 546.69 1027.79 540.27 1017.63 544.77"/>
    <polygon points="893.24 416.42 880.7 430.1 872.88 434.5 880.7 434.5 880.7 437.43 896.66 433.52 898.67 430.15 901.41 429.97 903.8 433.95 910.79 435.46 918.93 431.03 912.03 429.44 911.5 425.2 897.52 419.45 898.23 414.85 893.24 416.42"/>
    <polygon points="891.77 440.68 886.02 444.39 886.64 446.78 889.65 445.45 892.92 445.98 902.65 439.88 891.77 440.68"/>
    <polygon points="911.58 444.66 906.19 448.11 907.6 450.94 913.62 447.84 914.95 445.89 911.58 444.66"/>
    <polygon points="1140.48 292.14 1109.08 297.97 1109.08 300.98 1069.21 311.88 1064.14 310.38 1045.71 312.26 1048.72 317.14 1036.12 322.03 1024.09 321.66 1023.34 325.98 1013.37 328.62 1017.88 330.87 1000.58 333.88 998.14 332.38 955.27 332.56 943.99 336.32 950.38 338.58 990.62 337.83 998.14 341.4 987.8 346.85 970.31 346.29 923.3 346.29 928 335.38 917.29 332.94 914.84 328.99 923.49 326.74 934.4 333.88 958.28 328.8 967.68 327.68 968.05 323.16 976.89 322.97 983.66 326.17 988.17 324.67 982.91 320.34 974.63 318.09 959.4 321.28 947.56 314.89 957.61 312.83 945.89 311.03 944.43 306.98 961.67 304.05 962.35 301.45 979.92 300.21 981.28 304.27 994.57 307.54 991.08 311.93 999.31 312.27 981.28 316.1 983.75 318.24 996.49 315.65 1006.86 312.61 1001.9 309.57 1001.67 306.64 1014.07 306.75 1019.36 309.23 1017.45 305.85 1023.87 304.83 1015.42 303.26 1005.28 304.72 1002.01 303.71 995.36 304.95 988.6 301.79 989.73 300.21 983.75 297.74 1025.56 293.34 1033.67 296.05 1044.27 291.76 1095.88 289.85 1140.48 292.14"/>
    <polygon points="1308.31 415.04 1300.27 419.12 1300.15 411.85 1292.11 411.08 1291.98 413.38 1288.03 413.38 1281.52 419.38 1295.3 419.12 1293.26 421.16 1283.94 424.35 1292.49 424.61 1293.26 428.05 1288.28 432.01 1298.23 431.37 1303.72 433.28 1319.41 435.32 1319.41 432.26 1330 432.52 1333.83 428.82 1343.14 427.03 1349.77 421.8 1349.26 418.23 1341.35 413.38 1335.36 410.19 1326.68 414.15 1318.52 413.38 1313.8 416.06 1308.31 415.04"/>
    <polygon points="2433.44 524.23 2439.4 530.19 2439.4 534.16 2450.98 542.77 2453.47 549.39 2460.58 555.68 2465.22 567.1 2472.01 571.57 2472.5 578.19 2476.47 581.17 2478.3 586.8 2484.25 592.76 2482.76 584.64 2484.91 585.8 2488.56 585.64 2492.2 588.95 2489.38 582.99 2485.25 582.82 2476.97 575.38 2470.85 562.8 2471.67 561.31 2478.63 561.64 2481.94 563.29 2466.05 549.39 2455.95 538.8 2449.82 534.49 2447.51 529.2 2434.76 518.44 2435.43 523.73 2433.44 524.23"/>
    <path d="M2443.38,1681.75,2434,1693.2l-53.21,13.13-21.88,5.05-25.6,12.12.68,8.42-47.82,8.42-12.8,14.14,28.62,10.78,52.54-1.68,21.51,7.92a887.86,887.86,0,0,1-198.25,22.25q-30.06,0-59.59-2H883.33q-29.52,2-59.59,2a888.07,888.07,0,0,1-193.93-21.27l-38-30.37L633,1741l32,11.43,26.3-1.14-13.72-7.44-59.46-10.29-26.3-8,48.6-3.43-2.29-6.86,42.88-12,72.61,1.72,44-2.29,48.59,11.43,27.45-4-18.3-7.43,4.57-8.58-14.29-2.85,30.87-1.72,5.15,6.29,48.6-4.57,49.74,4,21.72-2.29-2.86-21.15-4.57-5.15,20-8.57,10.29,3.43-1.14-13.15-8.58-3.43,46.31-28.59-2.28,24-20.59-1.14-5.14,10.29,2.86,5.72,24.6,8.69,32,30-1.69,11.45-30.3,13.47-43.11-2.7-.67,5.06,34.35,6.06-7.75,5.39h-13.81l1,8.75,21.22-1,8.42,5.39,105.07,15.83,38-6.74,26.6,1,11.79-5.72,57.92-5.73L1288,1739l-25.6,1-12.12-7.07,30.31-12.79,24.92-9.77-3.37-7.07,23.23-4,9.43-10.44,36.71-8.42,9.77-7.07,31.31-.34,22.57-4.38,55.56,3.71,37.38-7.08,16.84,7.08,37,.33,48.83-2,15.83-12.12,17.51,8.42,15.83-.34,3-6.06,47.48-12.8,11.79.68,10.77-7.75,29-3,13.14,6.4,73.41,7.41-1.68,4.71L1848,1672.32l4.71,7.41-12.79,4.71,6.39,5.39,29.3-14.48,7.41-6.4,33.34-8.08,31.32-20.88,40.07-.34,8.42,5.73,34.35-5.06,10.78-10.1,22.22-3.37,5.39,6.07h20.54l5.39,8.42,39.06-.34,18.86-5.73,9.09,5.73,73.75,2,40.75-3.37,11.45-8.08,5.72,3.37-3.7,6.06,52.2,4.38,1.34,8.75,16.84,1.69,33.68,8.75,8.08,6.74,34.35,5Z"/>
    <polygon points="1004.64 1509.13 998.9 1510.95 991.33 1510.95 994.46 1513.3 992.41 1514.12 993.23 1515.94 989.39 1514.68 993.42 1519.46 1000.2 1514.74 1002.71 1518.89 1006.11 1518.01 1006.23 1517.01 1009.88 1516.94 1011.95 1511.48 1008.49 1512.73 1004.64 1509.13"/>
    <polygon points="908.43 869.96 906.35 872.18 906.8 875.44 909.46 874.41 908.43 869.96"/>
    <polygon points="907.83 877.81 907.09 882.25 909.17 881.81 909.46 878.26 907.83 877.81"/>
    <polygon points="908.72 886.11 910.5 890.55 912.42 887.44 908.72 886.11"/>
    <polygon points="907.83 897.06 907.98 899.88 909.46 897.8 907.83 897.06"/>
    <polygon points="902.65 910.84 902.65 913.65 904.43 912.76 902.65 910.84"/>
  </g>
</svg>
