<svg id="Layer_4" data-name="Layer 4" xmlns="http://www.w3.org/2000/svg" width="3000" height="2000" viewBox="0 0 3000 2000">
  <polygon points="2451.2 580.66 2453.11 589.22 2445.32 612.11 2436.88 619.14 2423.33 614.79 2417.45 622.08 2413.61 629.11 2417.71 636.65 2390.34 649.62 2377.83 655.55 2335.93 659.12 2275.89 664.24 2254.85 684.11 2196.41 705.15 2112.25 678.27 2092.38 705.15 1989.52 709.83 1962.64 687.62 1901.86 685.28 1884.32 698.14 1841.48 674.85 1842.74 674.46 1837.77 652.41 1831.72 651.32 1833.88 646.78 1828.48 646.57 1827.83 638.35 1822.64 626.46 1822.85 619.98 1814.91 614.73 1814.8 614.35 1814.8 614.61 1810.33 611.65 1805.57 604.3 1801.68 601.82 1809.83 601.82 1807.24 598.48 1809.53 596.07 1809.45 595.8 1811.7 593.43 1826.27 596.27 1830.1 597.76 1829.11 593.68 1823.93 594.79 1820.72 591.83 1820.59 585.78 1815.03 579.48 1811.08 582.32 1804.26 577.82 1807.11 560.59 1797.61 540.41 1853.31 535.12 1887.15 518.87 2010.34 491.8 2201.23 509.4 2240.49 485.03 2289.22 508.04 2383.34 493.39 2377.69 501.31 2377.91 504.47 2374.29 507.3 2380.62 510.12 2388.99 509.67 2393.17 515.89 2398.71 515.77 2400.41 518.83 2405.38 515.21 2403.35 512.95 2408.55 513.4 2411.26 513.06 2429.91 521.43 2439.44 533.49 2440.71 542.18 2449.92 554.84 2454.26 565.58 2451.2 580.66" style="fill: red"/>
</svg>
